# xmcd
#
# Track frame offsets:
#	150
#	15975
#	32875
#	48360
#	62100
#	75980
#	93020
#	109080
#	118770
#	132105
#	148330
#	162925
#	176935
#	196120
#	197390
#
# Disc length: 2646
#
# Revision: 1
# Processed by: cddbd v1.5.1PL0 Copyright (c) Steve Scherf et al.
# Submitted via: VisiTrax 2.9.5.180 - For more info visit www.synapsa.com
# Normalized: r0:DSETVAR1
#
DISCID=c10a540f
DTITLE=Various Artist - CDX 131 Maech 1996
DYEAR=1996
DGENRE=
TTITLE0=Kenny Chesney - Back in your arms again
TTITLE1=David Kersh - Breaking hearts and taking names
TTITLE2=Rhett Akins - Don't get me started
TTITLE3=Kim Richey - From where I stand
TTITLE4=Chet Atkins - I still write your name in the snow
TTITLE5=Sammy Kershaw - Meant to be
TTITLE6=Brooks and Dunn - My Maria
TTITLE7=Don Williams - My rifle, my pony and me
TTITLE8=George Strait - Out of the blue clear sky
TTITLE9=Martina McBride - Phones are ringin' all over town
TTITLE10=Sky Kings - Picture perfect
TTITLE11=Tracy Lawrence - Time marches on
TTITLE12=Lonestar - No news
TTITLE13=Tim McGraw - PSA
TTITLE14=Tim McGraw - PSA
EXTD=
EXTT0=
EXTT1=
EXTT2=
EXTT3=
EXTT4=
EXTT5=
EXTT6=
EXTT7=
EXTT8=
EXTT9=
EXTT10=
EXTT11=
EXTT12=
EXTT13=
EXTT14=
PLAYORDER=
